<svg xmlns="http://www.w3.org/2000/svg" xmlns:xlink="http://www.w3.org/1999/xlink" version="1.1" x="0px" y="0px" viewBox="0 0 100 125" stroke="
 
 #ffa31a" fill="
 #ffa31a" enable-background="new 0 0 100 100" xml:space="preserve"><g><g><path d="M50,16.2c-18.7,0-33.8,15.2-33.8,33.8c0,18.7,15.2,33.8,33.8,33.8c18.7,0,33.8-15.2,33.8-33.8    C83.8,31.3,68.7,16.2,50,16.2z M50,80.2c-16.6,0-30.2-13.5-30.2-30.2c0-16.6,13.5-30.2,30.2-30.2c16.6,0,30.2,13.5,30.2,30.2    C80.2,66.6,66.6,80.2,50,80.2z"/><path d="M68.4,36.2c-0.8-0.6-2-0.5-2.6,0.3L47.2,59.8l-0.4,0.4l-10.3-12c-0.7-0.8-1.8-0.9-2.6-0.2c-0.8,0.7-0.9,1.8-0.2,2.6    l11.7,13.6c0.3,0.4,0.8,0.6,1.4,0.6c0,0,0,0,0,0c0.5,0,1-0.2,1.4-0.6l1.8-2c0,0,0.1-0.1,0.1-0.1l18.7-23.4    C69.4,37.9,69.2,36.8,68.4,36.2z"/></g></g></svg>