<svg xmlns="http://www.w3.org/2000/svg" xmlns:xlink="http://www.w3.org/1999/xlink" version="1.1" x="0px" y="0px" viewBox="0 0 100 125" enable-background="new 0 0 100 100" xml:space="preserve"><g><g><path d="M62.5,37.6c-0.7-0.7-1.9-0.7-2.6,0l-9.8,9.8l-9.7-9.7c-0.7-0.7-1.9-0.7-2.6,0c-0.7,0.7-0.7,1.9,0,2.6l9.7,9.7l-9.7,9.7    c-0.7,0.7-0.7,1.9,0,2.6c0.4,0.4,0.8,0.5,1.3,0.5c0.5,0,0.9-0.2,1.3-0.5l9.7-9.7l9.8,9.8c0.4,0.4,0.8,0.5,1.3,0.5s0.9-0.2,1.3-0.5    c0.7-0.7,0.7-1.9,0-2.6l-9.8-9.8l9.8-9.8C63.2,39.5,63.2,38.4,62.5,37.6z"/><path d="M50,15.7c-18.9,0-34.3,15.4-34.3,34.3c0,18.9,15.4,34.3,34.3,34.3c18.9,0,34.3-15.4,34.3-34.3    C84.3,31.1,68.9,15.7,50,15.7z M50,80.6c-16.9,0-30.6-13.7-30.6-30.6c0-16.9,13.7-30.6,30.6-30.6c16.9,0,30.6,13.7,30.6,30.6    C80.6,66.9,66.9,80.6,50,80.6z"/></g></g></svg>